<?xml version="1.0" encoding="UTF-8"?>
<!DOCTYPE svg PUBLIC "-//W3C//DTD SVG 1.1//EN" "http://www.w3.org/Graphics/SVG/1.1/DTD/svg11.dtd">
<svg version="1.1" xmlns="http://www.w3.org/2000/svg" xmlns:xlink="http://www.w3.org/1999/xlink" width="286" height="330"  xml:space="preserve" id="flago3">
    <!-- Generated by PaintCode - http://www.paintcodeapp.com -->

    <!-- This code was generated by Trial version of PaintCode, therefore cannot be used for commercial purposes. -->

    <g id="flago3-group4">
        <path id="flago3-bezier1184" fill-rule="evenodd" stroke="none" fill="rgb(192, 192, 192)" d="M 271.85,20.25 C 271.73,21.73 269.46,21.06 268.01,21.21 265.54,18.29 271.83,17.51 271.85,20.25 Z M 271.85,20.25" />
        <path id="flago3-bezier1185" fill-rule="evenodd" stroke="none" fill="rgb(192, 192, 192)" d="M 238.73,20.25 C 234.62,22.41 229.74,26.27 224.57,25.77 228.84,23.48 233.62,21.7 238.73,20.25 Z M 238.73,20.25" />
        <path id="flago3-bezier1186" fill-rule="evenodd" stroke="none" fill="rgb(192, 192, 192)" d="M 203.45,29.37 C 200.53,31.65 193.3,32.6 190.73,29.37 183.46,28.8 177.43,24.7 170.09,25.05 166.78,25.21 163.48,26.62 160.01,27.21 156.63,27.79 152.85,26.85 149.93,27.93 148.57,29.05 147.57,30.53 145.37,30.81 145.12,29.1 147.66,27.13 149.69,27.69 150.35,26.75 150.63,25.43 151.37,24.57 159.06,23.22 167.07,20.43 174.89,22.17 177.75,22.81 180.63,23.53 183.53,24.09 190.5,25.43 197.39,27.55 203.45,29.37 Z M 203.45,29.37" />
        <path id="flago3-bezier1187" fill-rule="evenodd" stroke="none" fill="rgb(192, 192, 192)" d="M 270.17,22.41 C 270.78,22.28 272,22.69 271.61,24.09 270.88,26.74 267.11,23.09 270.17,22.41 Z M 270.17,22.41" />
        <path id="flago3-bezier1188" fill-rule="evenodd" stroke="none" fill="rgb(192, 192, 192)" d="M 217.37,23.13 C 215.93,23.86 214.44,24.52 212.09,24.33 213.89,23.98 215.41,23.33 217.37,23.13 Z M 217.37,23.13" />
        <path id="flago3-bezier1189" fill-rule="evenodd" stroke="none" fill="rgb(192, 192, 192)" d="M 219.53,26.49 C 219.08,27.63 216.64,28 215.69,27.21 216.29,25.76 218.33,27.23 219.53,26.49 Z M 219.53,26.49" />
        <path id="flago3-bezier1190" fill-rule="evenodd" stroke="none" fill="rgb(192, 192, 192)" d="M 211.13,27.69 C 210.68,29.25 208.88,30.43 207.05,29.85 207.08,29.42 206.76,29.35 206.81,28.89 206.96,27.32 210.01,27.51 211.13,27.69 Z M 211.13,27.69" />
        <path id="flago3-bezier1191" fill-rule="evenodd" stroke="none" fill="rgb(192, 192, 192)" d="M 269.69,29.85 C 269.83,31.1 267.66,31.11 267.53,30.09 267.39,28.85 269.56,28.84 269.69,29.85 Z M 269.69,29.85" />
        <path id="flago3-bezier1192" fill-rule="evenodd" stroke="none" fill="rgb(192, 192, 192)" d="M 143.45,32.25 C 143.42,33.26 142.27,33.15 141.53,33.45 141.57,32.45 142.71,32.55 143.45,32.25 Z M 143.45,32.25" />
        <path id="flago3-bezier1193" fill-rule="evenodd" stroke="none" fill="rgb(192, 192, 192)" d="M 266.81,43.53 C 268.23,52.49 264.25,58.02 263.45,64.65 263.31,65.84 263.58,66.87 263.45,68.01 262.88,72.98 261.63,78.07 261.05,82.89 260.94,83.81 261.19,84.67 261.05,85.53 260.49,88.99 257.96,93.6 261.29,95.85 261.18,98.54 260.49,100.65 259.85,102.81 258.59,102.09 257.64,105.88 259.37,106.17 260.08,105.68 259.14,103.54 259.85,103.05 259.92,105.12 259.86,107.06 259.13,108.33 259.09,108.05 259.17,107.65 258.89,107.61 258.02,108.14 256.92,110.76 258.41,111.45 259.1,111.42 258.21,109.81 258.89,109.77 258.83,110.59 259.08,111.72 258.65,112.17 256.95,112.31 256.5,113.7 255.53,114.57 255.26,116.57 256.14,119.55 257.45,118.41 256.27,123.4 257.31,130.6 252.17,131.61 251.18,130.01 250.92,128.7 250.97,127.05 251.16,120.74 253.93,112.64 254.81,105.69 254.96,104.51 254.65,103.4 254.81,102.09 255.01,100.44 255.93,98.87 256.25,97.05 256.73,94.32 256.84,91.31 257.21,88.41 258.14,81.24 260.84,73.61 261.77,66.09 261.89,65.13 261.65,64.16 261.77,62.97 262.17,59.25 264.95,54.08 265.61,49.77 266,47.26 265.68,44.62 266.81,43.53 Z M 266.81,43.53" />
        <path id="flago3-bezier1194" fill-rule="evenodd" stroke="none" fill="rgb(0, 0, 0)" d="M 143.93,72.81 C 145.82,72.69 147.4,72.43 149.21,72.81 151.87,73.19 152.78,76.23 154.97,77.85 156.68,79.12 158.8,79.35 159.05,81.45 L 159.05,83.37 C 156.4,87.31 154.9,96.57 148.73,97.53 145.16,98.09 139.31,95.89 138.17,93.69 137.2,91.81 138.24,88.92 136.73,87.21 136.8,86.83 136.51,86.8 136.49,86.49 L 136.49,84.09 C 137.04,82.17 137.29,79.93 138.17,78.33 139.81,76.22 141.46,74.11 143.93,72.81 Z M 143.93,72.81" />
        <path id="flago3-bezier1195" fill-rule="evenodd" stroke="none" fill="rgb(192, 192, 192)" d="M 264.65,75.45 C 264.55,76.55 264.96,78.16 264.17,78.57 264.56,77.76 264.15,76.15 264.65,75.45 Z M 264.65,75.45" />
        <path id="flago3-bezier1196" fill-rule="evenodd" stroke="none" fill="rgb(192, 192, 192)" d="M 168.41,79.29 L 168.41,83.85 C 168.01,82.89 168.01,80.26 168.41,79.29 Z M 168.41,79.29" />
        <path id="flago3-bezier1197" fill-rule="evenodd" stroke="none" fill="rgb(192, 192, 192)" d="M 136.49,84.09 L 136.49,86.49 C 136.1,86.23 136.1,84.35 136.49,84.09 Z M 136.49,84.09" />
        <path id="flago3-bezier1198" fill-rule="evenodd" stroke="none" fill="rgb(0, 0, 0)" d="M 164.57,87.45 L 164.81,87.45 C 169.31,87.83 169.68,92.35 170.57,96.33 170.38,98.41 171.17,100.09 170.57,101.85 169.57,104.72 163.68,105.25 163.13,101.61 163.23,106.04 156.4,110.59 154.97,104.49 155.19,103.91 155.53,103.45 155.45,102.57 156.19,101.63 157.09,100.85 157.13,99.21 157.8,97.24 159.56,96.36 159.77,93.93 160.15,93.19 160.05,91.97 160.49,91.29 L 160.49,91.05 C 161.46,89.46 162.8,88.24 164.57,87.45 Z M 164.57,87.45" />
        <path id="flago3-bezier1199" fill-rule="evenodd" stroke="none" fill="rgb(192, 192, 192)" d="M 262.25,88.89 C 262.1,89.94 262.57,91.61 262.01,92.25 262.17,91.21 261.7,89.54 262.25,88.89 Z M 262.25,88.89" />
        <path id="flago3-bezier1200" fill-rule="evenodd" stroke="none" fill="rgb(255, 255, 255)" d="M 259.85,102.81 L 259.85,103.05 C 259.14,103.54 260.08,105.68 259.37,106.17 257.64,105.88 258.59,102.09 259.85,102.81 Z M 259.85,102.81" />
        <path id="flago3-bezier1201" fill-rule="evenodd" stroke="none" fill="rgb(192, 192, 192)" d="M 152.33,112.65 C 153.12,111.96 152.94,115.56 152.57,116.01 152.42,114.97 152.89,113.3 152.33,112.65 Z M 152.33,112.65" />
        <path id="flago3-bezier1202" fill-rule="evenodd" stroke="none" fill="rgb(192, 192, 192)" d="M 149.45,113.61 C 150,114.02 149.54,115.44 149.69,116.25 149.14,115.84 149.6,114.42 149.45,113.61 Z M 149.45,113.61" />
        <path id="flago3-bezier1203" fill-rule="evenodd" stroke="none" fill="rgb(192, 192, 192)" d="M 180.89,116.01 C 180.87,120.14 176.99,124.2 173.21,121.53 172.79,120.51 173.03,118.83 172.97,117.45 175.68,117.51 179.71,118.77 180.65,116.01 L 180.89,116.01 Z M 180.89,116.01" />
        <path id="flago3-bezier1204" fill-rule="evenodd" stroke="none" fill="rgb(192, 192, 192)" d="M 117.53,117.21 C 117.93,117.78 117.93,120 117.53,120.57 L 117.53,117.21 Z M 117.53,117.21" />
        <path id="flago3-bezier1205" fill-rule="evenodd" stroke="none" fill="rgb(255, 255, 255)" d="M 154.01,124.65 C 154.79,125.15 155.43,125.8 156.89,125.61 156.3,126.75 153.86,125.84 154.01,124.65 Z M 154.01,124.65" />
        <path id="flago3-bezier1206" fill-rule="evenodd" stroke="none" fill="rgb(255, 255, 255)" d="M 167.69,127.29 C 166.54,127.33 165.51,127.24 165.29,126.33 166.71,126.19 167.62,126.57 168.65,126.81 168.65,127.21 167.99,126.95 167.93,127.29 L 167.69,127.29 Z M 167.69,127.29" />
        <path id="flago3-bezier1207" fill-rule="evenodd" stroke="none" fill="rgb(255, 255, 255)" d="M 107.93,131.85 L 107.21,131.85 C 107.43,131.35 107.92,131.12 108.65,131.13 109.03,131.99 107.84,131.28 107.93,131.85 Z M 107.93,131.85" />
        <path id="flago3-bezier1208" fill-rule="evenodd" stroke="none" fill="rgb(192, 192, 192)" d="M 196.73,131.85 C 198.26,131.45 201.45,131.45 202.97,131.85 L 196.73,131.85 Z M 196.73,131.85" />
        <path id="flago3-bezier1209" fill-rule="evenodd" stroke="none" fill="rgb(192, 192, 192)" d="M 252.89,135.21 C 253.86,136.94 252.89,139.7 251.21,140.25 249.39,138.69 250.07,135.28 252.89,135.21 Z M 252.89,135.21" />
        <path id="flago3-bezier1210" fill-rule="evenodd" stroke="none" fill="rgb(192, 192, 192)" d="M 251.69,140.49 C 253.12,142.5 251.23,144.43 250.25,145.53 248.16,144.36 248.79,140.5 251.69,140.49 Z M 251.69,140.49" />
        <path id="flago3-bezier1211" fill-rule="evenodd" stroke="none" fill="rgb(192, 192, 192)" d="M 114.65,145.77 C 115.38,145.92 116.72,145.47 117.05,146.01 116.32,145.86 114.98,146.32 114.65,145.77 Z M 114.65,145.77" />
        <path id="flago3-bezier1212" fill-rule="evenodd" stroke="none" fill="rgb(192, 192, 192)" d="M 250.49,151.53 C 250.09,152.34 248.99,152.38 248.33,151.77 247.81,149.49 250.59,149.87 250.49,151.53 Z M 250.49,151.53" />
        <path id="flago3-bezier1213" fill-rule="evenodd" stroke="none" fill="rgb(192, 192, 192)" d="M 249.29,153.21 C 249.6,154.19 250.7,154.37 250.73,155.61 248.36,157.34 245.44,152.88 249.29,153.21 Z M 249.29,153.21" />
        <path id="flago3-bezier1214" fill-rule="evenodd" stroke="none" fill="rgb(192, 192, 192)" d="M 246.89,159.69 C 246.48,156.12 250.28,158.3 250.01,159.69 249.74,161.12 247.79,160.73 246.89,159.69 Z M 246.89,159.69" />
        <path id="flago3-bezier1215" fill-rule="evenodd" stroke="none" fill="rgb(192, 192, 192)" d="M 208.97,158.97 C 207.49,159.65 205.46,159.79 203.21,159.69 203.74,157.59 207.28,158.76 208.97,158.97 Z M 208.97,158.97" />
        <path id="flago3-bezier1216" fill-rule="evenodd" stroke="none" fill="rgb(192, 192, 192)" d="M 195.77,159.45 C 195.49,161.08 193.83,160.76 192.65,161.37 191.06,162.21 190.05,163.81 188.57,164.49 187.37,165.05 185.84,165.03 184.49,165.69 181.35,167.23 178.63,170.26 175.37,171.45 172.4,172.54 169.35,173.09 166.25,174.09 165.22,174.43 164.45,175.34 163.37,175.77 160.8,176.79 156.81,177.74 154.01,177.93 152.73,178.02 150.9,178.28 149.69,178.17 148.85,178.1 148.25,177.42 147.29,177.21 144.81,176.68 141.14,177.5 139.61,175.53 143.12,174.17 146.22,176.06 149.21,175.77 151.41,175.56 155.07,174.11 157.13,173.37 158.44,172.9 159.87,173.01 160.97,172.65 162.48,172.16 163.58,170.77 165.05,170.25 165.8,169.99 166.69,170.21 167.45,170.01 168.64,169.7 169.52,168.7 170.57,168.33 171.47,168.02 172.5,168.15 173.45,167.85 176.74,166.83 178.83,164.18 181.85,162.57 183.59,161.64 185.57,161.66 187.61,161.13 190.12,160.49 192.49,158.39 195.77,159.45 Z M 195.77,159.45" />
        <rect id="flago3-rectangle2" stroke="none" fill="rgb(192, 192, 192)" x="245.68" y="163.78" width="1.2" height="1.2" />
        <path id="flago3-bezier1217" fill-rule="evenodd" stroke="none" fill="rgb(192, 192, 192)" d="M 124.97,173.61 C 123.34,174.54 121.98,173.36 120.65,173.37 119.93,173.38 119.25,173.91 118.49,173.85 117.24,173.76 116.17,172.74 114.89,172.65 111.35,172.41 107.71,173.79 105.05,175.05 103.7,175.69 101.77,177.04 100.25,178.17 99.41,178.8 98.93,179.86 98.09,180.57 96.36,182.05 93.57,183.25 91.37,184.89 88.17,187.28 85.88,189.35 82.01,189.21 80,189.14 77.8,188.06 75.29,188.01 76.53,186.13 78.76,187.16 81.05,186.81 83.43,186.46 86.03,184.36 88.49,182.25 90.73,180.34 93.67,178.99 95.45,177.45 96.17,176.83 96.68,175.82 97.37,175.29 98.53,174.42 101.05,173.99 103.61,173.13 105.87,172.38 108.13,171.19 109.85,170.97 112.94,170.58 115.49,170.85 118.25,170.97 120.93,171.09 124.85,169.63 124.97,173.61 Z M 124.97,173.61" />
        <path id="flago3-bezier1218" fill-rule="evenodd" stroke="none" fill="rgb(192, 192, 192)" d="M 138.41,174.81 C 136.66,175.4 133.51,176.98 132.41,174.81 133.37,172.61 136.7,174.74 138.41,174.81 Z M 138.41,174.81" />
        <path id="flago3-bezier1219" fill-rule="evenodd" stroke="none" fill="rgb(192, 192, 192)" d="M 240.17,236.49 C 240.02,237.62 240.49,239.37 239.93,240.09 240.09,238.97 239.62,237.22 240.17,236.49 Z M 240.17,236.49" />
        <path id="flago3-bezier1220" fill-rule="evenodd" stroke="none" fill="rgb(192, 192, 192)" d="M 242.81,242.25 C 242.66,242.98 243.12,244.32 242.57,244.65 242.72,243.92 242.26,242.59 242.81,242.25 Z M 242.81,242.25" />
        <path id="flago3-bezier1221" fill-rule="evenodd" stroke="none" fill="rgb(255, 255, 255)" d="M 238.73,260.01 C 235.72,258.96 237.25,253.78 239.69,254.25 242.17,254.73 240.06,259.12 238.73,260.01 Z M 238.73,260.01" />
        <path id="flago3-bezier1222" fill-rule="evenodd" stroke="none" fill="rgb(255, 255, 255)" d="M 238.97,263.61 C 238.98,264.82 238.62,265.67 237.29,265.53 236.57,264.44 237.66,263.43 238.97,263.61 Z M 238.97,263.61" />
        <path id="flago3-bezier1223" fill-rule="evenodd" stroke="none" fill="rgb(255, 255, 255)" d="M 236.09,273.45 C 234.95,272.03 236.08,268.69 238.01,269.61 239.06,271.07 238.33,273.8 236.09,273.45 Z M 236.09,273.45" />
        <path id="flago3-bezier1224" fill-rule="evenodd" stroke="none" fill="rgb(255, 255, 255)" d="M 237.77,274.65 C 238.53,277.86 236.15,279.87 236.33,283.29 235.58,280.49 233.34,274.15 237.77,274.65 Z M 237.77,274.65" />
        <path id="flago3-bezier1225" fill-rule="evenodd" stroke="none" fill="rgb(192, 192, 192)" d="M 243.05,282.33 C 243.06,283.54 242.93,284.61 242.33,285.21 242.25,284.01 242.89,283.53 242.81,282.33 L 243.05,282.33 Z M 243.05,282.33" />
        <path id="flago3-bezier1226" fill-rule="evenodd" stroke="none" fill="rgb(0, 0, 0)" d="M 229.37,287.37 C 230.14,287.17 230.11,287.75 230.57,287.85 230.23,289.75 229.66,291.42 228.41,292.41 L 228.17,292.41 C 225.99,291.42 227.13,287.43 229.37,287.37 Z M 229.37,287.37" />
        <path id="flago3-bezier1227" fill-rule="evenodd" stroke="none" fill="rgb(0, 0, 0)" d="M 227.93,293.61 C 228.92,293.45 229.43,292.45 230.57,293.13 231.67,295.49 229.12,297.89 227.45,296.73 L 227.21,296.73 C 226.59,295.51 227.36,294.36 227.93,293.61 Z M 227.93,293.61" />
        <path id="flago3-bezier1228" fill-rule="evenodd" stroke="none" fill="rgb(192, 192, 192)" d="M 236.33,283.29 C 236.15,279.87 238.53,277.86 237.77,274.65 233.34,274.15 235.58,280.49 236.33,283.29 Z M 238.01,269.61 C 236.08,268.69 234.95,272.03 236.09,273.45 238.33,273.8 239.06,271.07 238.01,269.61 Z M 237.29,265.53 C 238.63,265.67 238.98,264.82 238.97,263.61 237.66,263.44 236.57,264.44 237.29,265.53 Z M 239.69,254.25 C 237.25,253.78 235.72,258.96 238.73,260.01 240.06,259.12 242.17,254.73 239.69,254.25 Z M 227.45,296.73 C 229.12,297.89 231.68,295.49 230.57,293.13 229.43,292.45 228.92,293.45 227.93,293.61 227.83,293.03 228.37,293.09 228.17,292.41 L 228.41,292.41 C 229.66,291.42 230.23,289.75 230.57,287.85 230.11,287.75 230.14,287.17 229.37,287.37 229.93,285.77 230.55,284.23 231.05,282.57 235.99,273.24 235.57,259.79 238.49,248.25 238.84,249.58 238.76,251.34 239.93,251.85 241.33,251.81 241.54,250.58 241.85,249.45 240.68,259.63 240.28,269.51 238.73,278.97 237.59,285.92 235.49,292.45 234.41,299.13 233.91,302.23 232.21,305.11 232.01,308.25 229.09,308.67 227.42,310.28 227.21,311.85 226.71,315.63 234.72,317.91 236.33,314.97 235.43,316.63 233.98,317.74 232.01,318.33 231.91,321.56 232.89,324.9 229.37,325.53 233.26,329.49 224.56,332.38 225.29,327.21 225.44,326.15 225.93,325.66 227.21,325.29 226.87,324.27 225.93,323.83 225.77,322.65 225.7,322.07 226.44,321.51 226.49,320.49 226.55,319.34 225.61,317.77 226.97,316.89 222.76,311.82 228.34,303.51 227.45,296.73 Z M 227.45,296.73" />
        <path id="flago3-bezier1229" fill-rule="evenodd" stroke="none" fill="rgb(192, 192, 192)" d="M 242.09,287.13 L 242.09,289.05 C 239.88,294.77 240.64,303.44 237.77,308.49 238.81,301.05 240.28,294.04 241.85,287.13 L 242.09,287.13 Z M 242.09,287.13" />
        <path id="flago3-bezier1230" fill-rule="evenodd" stroke="none" fill="rgb(192, 192, 192)" d="M 242.57,244.89 C 242.58,246.11 242.48,247.2 242.09,248.01 242.14,246.86 242.21,245.73 242.57,244.89 Z M 242.57,244.89" />
        <path id="flago3-bezier1231" fill-rule="evenodd" stroke="none" fill="rgb(192, 192, 192)" d="M 243.77,233.13 C 243.19,235.83 243.54,239.46 242.81,242.01 243.1,239.02 242.87,235.51 243.77,233.13 Z M 243.77,233.13" />
        <path id="flago3-bezier1232" fill-rule="evenodd" stroke="none" fill="rgb(192, 192, 192)" d="M 244.97,224.01 C 244.76,226.28 244.21,228.21 244.25,230.73 L 244.01,230.73 C 243.94,229.03 244.33,225.8 244.97,224.01 Z M 244.97,224.01" />
        <path id="flago3-bezier1233" fill-rule="evenodd" stroke="none" fill="rgb(192, 192, 192)" d="M 245.69,219.93 C 245.38,221.14 245.48,222.76 244.97,223.77 245.1,222.38 245.07,220.83 245.69,219.93 Z M 245.69,219.93" />
        <path id="flago3-bezier1234" fill-rule="evenodd" stroke="none" fill="rgb(192, 192, 192)" d="M 246.41,215.61 C 246.19,216.99 246.11,218.51 245.69,219.69 245.72,218.12 245.88,216.68 246.41,215.61 Z M 246.41,215.61" />
        <path id="flago3-bezier1235" fill-rule="evenodd" stroke="none" fill="rgb(192, 192, 192)" d="M 247.37,205.05 C 247.43,206.63 246.95,207.67 247.13,209.37 L 246.89,209.37 C 246.6,208.09 247.02,206.39 247.37,205.05 Z M 247.37,205.05" />
        <path id="flago3-bezier1236" fill-rule="evenodd" stroke="none" fill="rgb(192, 192, 192)" d="M 248.09,198.09 C 248.08,199.69 247.99,201.19 247.61,202.41 247.62,200.82 247.72,199.32 248.09,198.09 Z M 248.09,198.09" />
        <path id="flago3-bezier1237" fill-rule="evenodd" stroke="none" fill="rgb(192, 192, 192)" d="M 248.09,194.25 C 248.74,190.74 249.45,187.29 249.77,183.45 250.18,186.66 249.18,190.54 248.81,193.77 L 248.81,192.57 C 248.31,192.87 248.66,194.02 248.09,194.25 Z M 248.09,194.25" />
        <path id="flago3-bezier1238" fill-rule="evenodd" stroke="none" fill="rgb(192, 192, 192)" d="M 246.65,200.97 C 246.58,202.02 246.4,202.96 245.93,203.61 246.11,202.67 246.23,201.67 246.65,200.97 Z M 246.65,200.97" />
        <path id="flago3-bezier1239" fill-rule="evenodd" stroke="none" fill="rgb(192, 192, 192)" d="M 245.93,203.85 C 245.74,204.95 245.8,206.28 245.21,206.97 245.35,205.83 245.46,204.66 245.93,203.85 Z M 245.93,203.85" />
        <path id="flago3-bezier1240" fill-rule="evenodd" stroke="none" fill="rgb(255, 255, 255)" d="M 241.85,222.33 C 243.33,217.57 243.82,211.83 245.21,206.97 245.8,206.28 245.74,204.94 245.93,203.85 L 245.93,203.61 C 246.4,202.96 246.58,202.02 246.65,200.97 247.07,198.67 247.46,196.35 248.09,194.25 248.66,194.02 248.31,192.87 248.81,192.57 L 248.81,193.77 C 248.78,195.42 248.41,196.73 248.09,198.09 247.71,199.32 247.62,200.82 247.61,202.41 247.53,203.29 247.82,204.54 247.37,205.05 247.02,206.39 246.6,208.09 246.89,209.37 246.88,211.6 247.04,214.01 246.41,215.61 245.88,216.68 245.72,218.12 245.69,219.69 L 245.69,219.93 C 245.07,220.83 245.1,222.38 244.97,223.77 L 244.97,224.01 C 244.33,225.8 243.94,229.03 244.01,230.73 243.95,231.55 244.2,232.68 243.77,233.13 242.87,235.51 243.1,239.02 242.81,242.01 L 242.81,242.25 C 242.26,242.59 242.72,243.92 242.57,244.65 L 242.57,244.89 C 242.21,245.73 242.14,246.86 242.09,248.01 242.12,248.6 242.13,249.17 241.85,249.45 241.54,250.58 241.33,251.81 239.93,251.85 238.76,251.34 238.84,249.58 238.49,248.25 238.71,245.27 239.61,242.97 239.93,240.09 240.49,239.37 240.02,237.62 240.17,236.49 240.07,235.67 240.27,235.15 240.41,234.57 240.87,230.47 241.79,226.84 241.85,222.33 Z M 241.85,222.33" />
        <path id="flago3-bezier1241" fill-rule="evenodd" stroke="none" fill="rgb(192, 192, 192)" d="M 241.85,222.33 C 241.79,226.84 240.87,230.47 240.41,234.57 240.4,230 240.58,225.62 241.85,222.33 Z M 241.85,222.33" />
        <path id="flago3-bezier1242" fill-rule="evenodd" stroke="none" fill="rgb(192, 192, 192)" d="M 263.69,80.97 C 263.68,82.08 263.83,83.35 263.21,83.85 263.57,83.09 263.21,81.62 263.69,80.97 Z M 263.69,80.97" />
        <path id="flago3-bezier1243" fill-rule="evenodd" stroke="none" fill="rgb(255, 255, 255)" d="M 268.25,47.61 C 267.06,56.81 266.78,66.85 264.65,75.45 264.15,76.15 264.56,77.76 264.17,78.57 264.23,79.59 263.8,80.12 263.69,80.97 263.21,81.61 263.57,83.09 263.21,83.85 263.27,85.91 262.8,87.44 262.25,88.89 261.7,89.54 262.17,91.21 262.01,92.25 261.65,93.33 261.99,95.11 261.29,95.85 257.96,93.59 260.49,88.99 261.05,85.53 261.19,84.67 260.94,83.81 261.05,82.89 261.63,78.07 262.88,72.98 263.45,68.01 263.58,66.87 263.31,65.84 263.45,64.65 264.25,58.02 268.23,52.49 266.81,43.53 267.95,41.94 268.34,40.72 268.01,38.01 268.54,36.19 269.41,33.53 271.37,33.93 271.33,34.14 271.47,34.16 271.61,34.17 271.82,38.12 268.59,40.68 268.73,44.73 268.17,45.29 268.75,46.99 268.25,47.61 Z M 268.25,47.61" />
        <path id="flago3-bezier1244" fill-rule="evenodd" stroke="none" fill="rgb(192, 192, 192)" d="M 268.73,44.73 C 268.65,45.77 269.01,47.25 268.25,47.61 268.75,46.99 268.17,45.29 268.73,44.73 Z M 268.73,44.73" />
        <path id="flago3-bezier1245" fill-rule="evenodd" stroke="none" fill="rgb(192, 192, 192)" d="M 268.01,38.01 C 267.58,36.54 268.76,34.6 269.21,33.21 270.45,33.02 271.1,33.41 271.61,33.93 L 271.61,34.17 C 271.47,34.16 271.33,34.14 271.37,33.93 269.41,33.53 268.54,36.19 268.01,38.01 Z M 268.01,38.01" />
        <path id="flago3-bezier1246" fill-rule="evenodd" stroke="none" fill="rgb(192, 192, 192)" d="M 197.21,84.81 C 197.53,85.05 198.11,85.04 198.17,85.53 199.04,81.4 201.13,78.18 201.05,74.01 201.03,72.72 200.3,71.47 200.33,70.17 200.39,67.57 201.98,65.91 200.57,63.21 200.23,62.55 199.48,62.11 198.89,61.29 198.3,60.47 198.07,59.32 197.69,58.89 196.89,57.99 195.01,57.06 193.61,56.01 192.27,55.01 190.98,53.66 189.77,52.89 187.77,51.63 185.29,51.7 183.29,50.97 180.79,50.06 179.17,47.46 176.81,46.65 174.99,46.03 172.58,46.41 170.09,46.17 168.75,46.05 167.44,45.37 166.25,45.21 160.6,44.5 154.4,45.58 150.65,47.61 149.83,48.06 149.16,48.97 148.25,49.53 145.11,51.47 142.24,51.99 141.29,55.77 141.45,56.97 143.02,56.77 143.45,57.69 141.75,56.68 139.84,55.87 138.17,54.81 143.7,48.06 148.89,43.25 158.09,41.37 161.05,40.77 164.26,41.54 167.69,41.13 168.58,41.03 169.44,40.5 170.57,40.41 175.87,40.01 178.52,43.84 182.81,46.41 184.61,47.49 187.02,47.79 189.05,48.81 189.83,49.21 190.61,50.32 191.69,50.97 192.47,51.45 193.5,51.48 194.09,51.93 195.14,52.74 196.25,54.25 197.45,55.29 201.38,58.73 204.74,63.53 205.61,70.17 206.13,74.15 204.06,76.27 203.45,79.29 202.77,82.7 203.02,85.19 202.25,88.41 200.08,87.7 198.69,86.21 197.21,84.81 Z M 197.21,84.81" />
        <path id="flago3-bezier1247" fill-rule="evenodd" stroke="none" fill="rgb(192, 192, 192)" d="M 143.69,57.69 C 144.42,58.32 145.11,59 145.85,59.61 144.8,59.31 144.24,58.51 143.69,57.69 Z M 143.69,57.69" />
        <path id="flago3-bezier1248" fill-rule="evenodd" stroke="none" fill="rgb(192, 192, 192)" d="M 160.49,66.81 C 161.48,66.87 162.45,66.93 163.13,67.29 162.08,67.31 161.15,67.2 160.49,66.81 Z M 160.49,66.81" />
        <path id="flago3-bezier1249" fill-rule="evenodd" stroke="none" fill="rgb(192, 192, 192)" d="M 169.85,70.89 C 172.36,71.67 173.41,73.9 175.85,74.73 173.17,74.14 172.14,71.89 169.85,70.89 Z M 169.85,70.89" />
        <path id="flago3-bezier1250" fill-rule="evenodd" stroke="none" fill="rgb(255, 255, 255)" d="M 179.45,75.93 C 178.09,75.69 177.19,75 175.85,74.73 173.41,73.9 172.36,71.67 169.85,70.89 167.1,70.21 165.63,68.24 163.13,67.29 162.45,66.93 161.48,66.87 160.49,66.81 155.71,64.32 151.08,61.67 145.85,59.61 145.11,59 144.42,58.32 143.69,57.69 L 143.45,57.69 C 143.02,56.77 141.45,56.97 141.29,55.77 142.24,51.99 145.11,51.47 148.25,49.53 149.16,48.97 149.83,48.06 150.65,47.61 154.4,45.58 160.6,44.5 166.25,45.21 167.44,45.37 168.75,46.05 170.09,46.17 172.58,46.41 174.99,46.03 176.81,46.65 179.17,47.46 180.79,50.06 183.29,50.97 185.29,51.7 187.77,51.63 189.77,52.89 190.98,53.66 192.27,55.01 193.61,56.01 195.01,57.06 196.89,57.99 197.69,58.89 198.07,59.32 198.3,60.47 198.89,61.29 199.48,62.11 200.23,62.55 200.57,63.21 201.97,65.91 200.39,67.57 200.33,70.17 200.3,71.47 201.03,72.72 201.05,74.01 201.13,78.18 199.04,81.4 198.17,85.53 198.11,85.04 197.53,85.05 197.21,84.81 196.25,84.65 195.57,84.22 194.81,83.85 194.12,82.94 192.6,82.87 191.69,82.17 190.34,81.85 189.29,81.22 188.09,80.73 187.6,79.87 186.49,79.62 185.69,79.05 184.41,78.66 183.56,77.83 182.33,77.37 181.64,76.63 180.68,76.15 179.45,75.93 Z M 179.45,75.93" />
        <path id="flago3-bezier1251" fill-rule="evenodd" stroke="none" fill="rgb(192, 192, 192)" d="M 179.45,75.93 C 180.68,76.15 181.64,76.63 182.33,77.37 181.41,76.86 180.36,76.46 179.45,75.93 Z M 179.45,75.93" />
        <path id="flago3-bezier1252" fill-rule="evenodd" stroke="none" fill="rgb(192, 192, 192)" d="M 185.69,79.05 C 186.49,79.62 187.59,79.87 188.09,80.73 187.36,80.11 186.23,79.87 185.69,79.05 Z M 185.69,79.05" />
        <path id="flago3-bezier1253" fill-rule="evenodd" stroke="none" fill="rgb(192, 192, 192)" d="M 191.69,82.17 C 192.6,82.87 194.12,82.94 194.81,83.85 193.83,83.24 192.34,83.12 191.69,82.17 Z M 191.69,82.17" />
        <path id="flago3-bezier1254" fill-rule="evenodd" stroke="none" fill="rgb(192, 192, 192)" d="M 140.09,60.81 C 138.92,59.68 138.73,62.99 138.65,63.93 138.49,66.09 138.96,68.53 138.41,69.93 136.45,74.93 132.77,80.32 131.69,86.01 131.01,89.63 131.76,91.99 133.13,94.89 134.96,98.76 137.72,100.63 139.13,104.97 142.96,106.15 143.14,109.39 144.65,113.61 145.03,114.67 146.02,115.59 146.33,116.49 146.98,118.37 146.64,120.82 149.21,121.05 150.64,120.9 150.24,118.12 149.93,116.97 150.89,118.73 150.62,122.99 149.21,123.93 145.49,125.07 144.15,122.03 142.25,120.57 141.25,116.12 142.9,111.32 142.25,107.85 137.25,108.51 128.29,106.17 131.45,99.45 129.99,95.42 124.67,92.47 124.97,87.45 125.19,83.89 128.25,80.9 130.01,78.09 131.49,71.17 131.73,63.01 135.53,58.41 137.22,59.05 138.46,60.13 140.09,60.81 Z M 140.09,60.81" />
        <path id="flago3-bezier1255" fill-rule="evenodd" stroke="none" fill="rgb(192, 192, 192)" d="M 152.09,112.65 C 151.48,113.35 149.95,112.9 149.45,113.13 149.64,112.33 151.13,113.14 152.09,112.65 Z M 152.09,112.65" />
        <path id="flago3-bezier1256" fill-rule="evenodd" stroke="none" fill="rgb(192, 192, 192)" d="M 156.89,125.61 C 155.43,125.8 154.79,125.15 154.01,124.65 153.86,125.84 156.3,126.75 156.89,125.61 Z M 171.29,117.21 C 172,121.44 171.53,126.57 167.93,127.29 167.99,126.95 168.65,127.21 168.65,126.81 167.62,126.57 166.71,126.19 165.29,126.33 165.51,127.24 166.54,127.33 167.69,127.29 167.01,128.04 165.96,127.12 165.29,127.05 164.16,123.38 162.52,120.22 161.45,116.49 159.93,120.17 159.52,128.25 154.01,125.61 153.64,122.86 152.03,121.35 152.33,117.93 153.74,118.84 155.13,119.77 156.17,121.05 159.59,121.35 158.18,116.82 160.97,116.49 161.11,115.71 160.81,115.38 160.73,114.81 161.47,114.79 161.45,115.54 161.45,116.25 164.78,116.29 163.96,120.46 165.53,122.25 167.04,122.11 168.07,122.43 169.37,122.49 170.79,121.51 170.9,119.23 171.29,117.21 Z M 171.29,117.21" />
        <path id="flago3-bezier1257" fill-rule="evenodd" stroke="none" fill="rgb(192, 192, 192)" d="M 171.05,113.37 C 171.39,112.89 174.43,113.01 173.69,113.61 173.28,113.06 171.86,113.52 171.05,113.37 Z M 171.05,113.37" />
        <path id="flago3-bezier1258" fill-rule="evenodd" stroke="none" fill="rgb(192, 192, 192)" d="M 193.61,90.33 C 195.55,91.59 197.09,93.25 199.37,94.17 197.59,96.19 198.46,101.07 197.45,104.01 196.44,106.96 193.86,110.48 190.25,110.97 189.06,111.13 187.82,110.85 186.41,110.97 185,110.06 183.97,108.78 182.33,108.09 181.77,109.93 181.23,111.79 180.65,113.61 180.37,111.97 182.01,110.18 181.85,107.85 183.37,108.87 184.06,108.4 186.17,107.85 187.88,107.42 190.17,107.42 190.97,106.89 192.79,105.71 192.39,103.21 193.85,102.09 192.6,98.65 193.71,94.14 195.29,92.01 195.02,91.17 193.93,91.13 193.61,90.33 Z M 193.61,90.33" />
        <path id="flago3-bezier1259" fill-rule="evenodd" stroke="none" fill="rgb(192, 192, 192)" d="M 193.37,90.33 C 192.78,90.37 192.63,89.96 192.17,89.85 191.02,92.62 189.2,94.72 186.65,96.09 188.64,94.24 191.2,92.96 191.69,89.61 192.69,89.34 192.63,90.12 193.37,90.09 L 193.37,90.33 Z M 193.37,90.33" />
        <path id="flago3-bezier1260" fill-rule="evenodd" stroke="none" fill="rgb(192, 192, 192)" d="M 169.85,86.73 C 169.39,93.63 178.42,99.9 186.41,96.09 185.36,97.37 184.65,98.67 183.29,99.21 176.61,101.88 170.58,95.68 169.61,90.33 169.58,91.72 170.61,94.13 170.57,96.33 169.68,92.35 169.31,87.83 164.81,87.45 166.92,86.79 168.07,89.15 169.37,90.09 168.66,88.92 168.91,87.43 169.85,86.73 Z M 169.85,86.73" />
        <path id="flago3-bezier1261" fill-rule="evenodd" stroke="none" fill="rgb(192, 192, 192)" d="M 166.97,74.49 C 167.46,74.72 167.92,74.98 168.41,75.21 168.27,75.63 168.7,76.62 168.17,76.65 L 168.17,75.45 C 167.98,74.92 167.04,75.14 166.97,74.49 Z M 166.97,74.49" />
        <path id="flago3-bezier1262" fill-rule="evenodd" stroke="none" fill="rgb(192, 192, 192)" d="M 154.49,68.73 C 155.72,68.94 156.61,69.5 157.13,70.41 156.48,69.63 155.35,69.31 154.49,68.73 Z M 154.49,68.73" />
        <path id="flago3-bezier1263" fill-rule="evenodd" stroke="none" fill="rgb(192, 192, 192)" d="M 151.13,67.05 C 152.58,67.2 153.31,68.08 154.25,68.73 153.11,68.28 152.27,67.51 151.13,67.05 Z M 151.13,67.05" />
        <path id="flago3-bezier1264" fill-rule="evenodd" stroke="none" fill="rgb(192, 192, 192)" d="M 147.29,64.89 C 148.38,65.49 149.61,65.93 150.41,66.81 149.37,66.18 148.11,65.76 147.29,64.89 Z M 147.29,64.89" />
        <path id="flago3-bezier1265" fill-rule="evenodd" stroke="none" fill="rgb(255, 255, 255)" d="M 149.21,72.81 C 147.4,72.43 145.82,72.69 143.93,72.81 141.09,73.73 139.64,76.04 138.17,78.33 137.29,79.93 137.05,82.17 136.49,84.09 136.1,84.35 136.1,86.23 136.49,86.49 136.51,86.8 136.8,86.83 136.73,87.21 134.87,97.9 144.76,100.94 152.81,98.01 155.62,93.86 157.51,88.79 159.05,83.37 L 159.05,81.45 C 158.77,78.77 156.73,78.92 154.97,77.61 152.73,75.96 152.01,72.81 149.21,72.81 Z M 140.09,60.81 C 142.26,62.4 144.57,63.86 147.29,64.89 148.11,65.76 149.37,66.18 150.41,66.81 150.8,66.75 150.83,67.04 151.13,67.05 152.27,67.51 153.11,68.28 154.25,68.73 L 154.49,68.73 C 155.35,69.31 156.48,69.63 157.13,70.41 161.01,71.18 164,72.82 166.97,74.49 167.04,75.14 167.98,74.92 168.17,75.45 L 168.17,76.65 C 168.29,77.5 168.53,78.21 168.41,79.29 168.01,80.26 168.01,82.89 168.41,83.85 168.76,84.95 169.81,85.33 169.85,86.73 168.91,87.43 168.66,88.92 169.37,90.09 168.07,89.15 166.92,86.79 164.81,87.45 L 164.57,87.45 C 162.61,88.05 161.1,89.1 160.49,91.05 L 160.49,91.29 C 159.88,91.8 159.67,92.71 159.77,93.93 159.56,96.37 157.8,97.24 157.13,99.21 156.73,100.5 156.02,101.46 155.45,102.57 155.53,103.45 155.19,103.91 154.97,104.49 154.35,107.56 161.43,113.2 163.61,107.37 167.57,110.11 170.02,105.45 170.57,101.85 171.17,100.09 170.38,98.41 170.57,96.33 170.61,94.13 169.59,91.72 169.61,90.33 170.58,95.68 176.61,101.88 183.29,99.21 184.65,98.67 185.36,97.37 186.41,96.09 L 186.65,96.09 C 189.2,94.72 191.02,92.62 192.17,89.85 192.63,89.96 192.78,90.37 193.37,90.33 L 193.61,90.33 C 193.93,91.13 195.02,91.17 195.29,92.01 193.71,94.14 192.6,98.65 193.85,102.09 192.39,103.21 192.79,105.71 190.97,106.89 190.17,107.42 187.88,107.42 186.17,107.85 184.06,108.4 183.37,108.87 181.85,107.85 182.01,110.18 180.37,111.97 180.65,113.61 181.08,114.07 180.83,115.2 180.89,116.01 L 180.65,116.01 C 179.72,118.77 175.68,117.51 172.97,117.45 172.94,115.9 173.64,115.08 173.69,113.61 174.43,113.01 171.39,112.89 171.05,113.37 L 170.81,113.37 C 170.73,114.89 171.26,115.81 171.29,117.21 170.9,119.23 170.79,121.51 169.37,122.49 168.07,122.44 167.04,122.11 165.53,122.25 163.96,120.46 164.78,116.29 161.45,116.25 161.45,115.54 161.48,114.79 160.73,114.81 160.81,115.38 161.11,115.71 160.97,116.49 158.18,116.82 159.59,121.35 156.17,121.05 155.13,119.78 153.74,118.84 152.33,117.93 152.23,117.11 152.43,116.59 152.57,116.01 152.94,115.56 153.12,111.96 152.33,112.65 L 152.09,112.65 C 151.13,113.14 149.64,112.33 149.45,113.13 L 149.45,113.61 C 149.61,114.42 149.14,115.84 149.69,116.25 149.82,116.45 149.94,116.64 149.93,116.97 150.24,118.12 150.64,120.9 149.21,121.05 146.64,120.82 146.98,118.37 146.33,116.49 146.02,115.59 145.03,114.67 144.65,113.61 143.14,109.39 142.96,106.15 139.13,104.97 137.72,100.63 134.96,98.76 133.13,94.89 131.76,91.99 131.01,89.63 131.69,86.01 132.77,80.32 136.45,74.93 138.41,69.93 138.96,68.53 138.49,66.09 138.65,63.93 138.73,62.99 138.92,59.68 140.09,60.81 Z M 140.09,60.81" />
        <path id="flago3-bezier1266" fill-rule="evenodd" stroke="none" fill="rgb(192, 192, 192)" d="M 160.49,91.05 C 161.1,89.1 162.61,88.05 164.57,87.45 162.8,88.24 161.46,89.46 160.49,91.05 Z M 160.49,91.05" />
        <path id="flago3-bezier1267" fill-rule="evenodd" stroke="none" fill="rgb(192, 192, 192)" d="M 160.49,91.29 C 160.05,91.97 160.15,93.19 159.77,93.93 159.67,92.71 159.88,91.8 160.49,91.29 Z M 160.49,91.29" />
        <path id="flago3-bezier1268" fill-rule="evenodd" stroke="none" fill="rgb(192, 192, 192)" d="M 157.13,99.21 C 157.09,100.85 156.19,101.63 155.45,102.57 156.02,101.46 156.74,100.5 157.13,99.21 Z M 157.13,99.21" />
        <path id="flago3-bezier1269" fill-rule="evenodd" stroke="none" fill="rgb(192, 192, 192)" d="M 154.97,104.49 C 156.4,110.59 163.23,106.04 163.13,101.61 163.68,105.25 169.57,104.72 170.57,101.85 170.02,105.44 167.57,110.1 163.61,107.37 161.43,113.19 154.35,107.56 154.97,104.49 Z M 154.97,104.49" />
        <path id="flago3-bezier1270" fill-rule="evenodd" stroke="none" fill="rgb(192, 192, 192)" d="M 138.17,78.33 C 139.64,76.03 141.09,73.73 143.93,72.81 141.46,74.1 139.82,76.22 138.17,78.33 Z M 138.17,78.33" />
        <path id="flago3-bezier1271" fill-rule="evenodd" stroke="none" fill="rgb(192, 192, 192)" d="M 136.73,87.21 C 138.24,88.92 137.2,91.81 138.17,93.69 139.31,95.89 145.16,98.09 148.73,97.53 154.9,96.57 156.4,87.31 159.05,83.37 157.51,88.79 155.62,93.86 152.81,98.01 144.76,100.94 134.87,97.9 136.73,87.21 Z M 136.73,87.21" />
        <path id="flago3-bezier1272" fill-rule="evenodd" stroke="none" fill="rgb(192, 192, 192)" d="M 149.21,72.81 C 152.01,72.81 152.73,75.96 154.97,77.61 156.73,78.92 158.77,78.77 159.05,81.45 158.8,79.35 156.68,79.12 154.97,77.85 152.78,76.23 151.87,73.19 149.21,72.81 Z M 149.21,72.81" />
        <path id="flago3-bezier1273" fill-rule="evenodd" stroke="none" fill="rgb(192, 192, 192)" d="M 207.77,109.05 C 209,108.92 209.09,110.19 210.17,109.53 209.5,110.56 208.5,109.37 207.77,109.05 Z M 207.77,109.05" />
        <path id="flago3-bezier1274" fill-rule="evenodd" stroke="none" fill="rgb(192, 192, 192)" d="M 201.77,110.73 C 202.46,109.82 203.57,109.33 204.89,109.05 203.89,109.65 202.66,110.02 201.77,110.73 Z M 201.77,110.73" />
        <path id="flago3-bezier1275" fill-rule="evenodd" stroke="none" fill="rgb(192, 192, 192)" d="M 200.33,114.33 L 200.33,115.05 C 199.5,115.34 198.6,115.56 197.93,116.01 198.36,115.4 199.03,115.03 200.09,115.05 200.07,114.71 200.05,114.37 200.33,114.33 Z M 200.33,114.33" />
        <path id="flago3-bezier1276" fill-rule="evenodd" stroke="none" fill="rgb(192, 192, 192)" d="M 185.69,122.01 C 186.23,121.43 187.26,121.34 188.09,121.05 187.56,121.64 186.53,121.73 185.69,122.01 Z M 185.69,122.01" />
        <path id="flago3-bezier1277" fill-rule="evenodd" stroke="none" fill="rgb(192, 192, 192)" d="M 180.41,124.41 C 181.01,123.65 182.05,123.33 183.05,122.97 182.34,123.62 181.26,123.9 180.41,124.41 Z M 180.41,124.41" />
        <path id="flago3-bezier1278" fill-rule="evenodd" stroke="none" fill="rgb(192, 192, 192)" d="M 172.49,129.21 C 174.52,127.08 177.85,126.25 180.17,124.41 178.11,126.51 174.76,127.32 172.49,129.21 Z M 172.49,129.21" />
        <path id="flago3-bezier1279" fill-rule="evenodd" stroke="none" fill="rgb(192, 192, 192)" d="M 167.93,131.85 C 169.39,130.99 170.74,130.02 172.25,129.21 170.97,130.25 169.66,131.26 167.93,131.85 Z M 167.93,131.85" />
        <path id="flago3-bezier1280" fill-rule="evenodd" stroke="none" fill="rgb(192, 192, 192)" d="M 150.17,137.13 C 151.78,136.42 154.04,136.36 155.69,135.69 154.33,136.65 152.14,136.78 150.17,137.13 Z M 150.17,137.13" />
        <path id="flago3-bezier1281" fill-rule="evenodd" stroke="none" fill="rgb(192, 192, 192)" d="M 144.17,137.61 C 145.35,136.79 147.81,137.25 149.69,137.13 148.26,137.7 145.67,137.11 144.17,137.61 Z M 144.17,137.61" />
        <path id="flago3-bezier1282" fill-rule="evenodd" stroke="none" fill="rgb(192, 192, 192)" d="M 123.29,126.09 C 128.09,129.62 132.24,133.78 137.93,136.41 131.96,134.07 127.88,129.83 123.29,126.09 Z M 123.29,126.09" />
        <path id="flago3-bezier1283" fill-rule="evenodd" stroke="none" fill="rgb(192, 192, 192)" d="M 117.53,120.81 C 117.73,121.49 117.19,121.44 117.29,122.01 119.04,123.55 121.5,124.37 123.05,126.09 121.06,124.88 119.36,123.38 117.05,122.49 117.03,121.75 117.16,121.16 117.53,120.81 Z M 117.53,120.81" />
        <path id="flago3-bezier1284" fill-rule="evenodd" stroke="none" fill="rgb(192, 192, 192)" d="M 114.89,111.45 C 116,112.42 116.51,113.99 117.05,115.53 116.2,114.31 115.78,112.64 114.89,111.45 Z M 114.89,111.45" />
        <path id="flago3-bezier1285" fill-rule="evenodd" stroke="none" fill="rgb(192, 192, 192)" d="M 109.61,108.33 C 112.41,107.3 114.08,109.46 114.89,111.21 113.64,109.74 112.85,107.82 109.61,108.33 Z M 109.61,108.33" />
        <path id="flago3-bezier1286" fill-rule="evenodd" stroke="none" fill="rgb(192, 192, 192)" d="M 101.93,112.41 C 103.23,109.87 105.31,108.11 109.37,108.33 105.69,108.5 103.39,110.03 101.93,112.41 Z M 101.93,112.41" />
        <path id="flago3-bezier1287" fill-rule="evenodd" stroke="none" fill="rgb(192, 192, 192)" d="M 99.53,117.21 C 99.8,115.73 100.49,114.65 101.45,113.85 100.62,114.78 100.22,116.14 99.53,117.21 Z M 99.53,117.21" />
        <path id="flago3-bezier1288" fill-rule="evenodd" stroke="none" fill="rgb(192, 192, 192)" d="M 107.21,131.85 C 98.97,133.6 93.93,126.5 98.09,119.85 L 98.33,119.85 C 97.77,120.59 98.34,121.8 98.57,122.49 100.85,125.4 104.98,123.99 108.65,124.41 112.56,124.87 115.4,127.56 117.05,130.17 119.78,133.35 127.31,136.28 131.93,139.05 133.1,139.75 135.18,141.29 135.05,142.89 134.91,144.76 132.61,145.38 130.97,144.09 131.22,143.7 131.99,143.83 132.41,143.61 125.01,140.05 120,134.11 112.97,130.17 111.28,130.72 110.32,132 107.93,131.85 107.84,131.28 109.03,131.99 108.65,131.13 107.92,131.12 107.43,131.35 107.21,131.85 Z M 107.21,131.85" />
        <path id="flago3-bezier1289" fill-rule="evenodd" stroke="none" fill="rgb(192, 192, 192)" d="M 118.49,146.01 C 120.15,146.36 122.26,146.24 124.25,146.25 122.79,146.67 119.64,146.71 118.49,146.01 Z M 118.49,146.01" />
        <path id="flago3-bezier1290" fill-rule="evenodd" stroke="none" fill="rgb(192, 192, 192)" d="M 220.97,139.77 C 225.23,143.92 221.72,152.23 215.69,151.53 211.82,151.09 209.83,147.18 206.81,145.29 203.72,145.03 201,144.38 200.09,141.93 198.24,140.91 195.04,141.23 192.89,140.49 186.31,142.54 179.67,142.61 173.45,145.29 170.95,146.38 169.17,147.99 166.73,148.89 164.33,149.78 161.76,150.75 159.05,151.53 157.82,151.89 156.29,151.7 154.49,152.01 153.51,152.18 152.48,152.88 151.37,152.97 149.77,153.1 148.34,152.22 146.81,152.01 139.84,151.07 130.75,154.45 124.49,155.13 123.57,155.23 122.46,154.9 121.61,155.13 119.35,155.76 118.43,159.55 116.33,161.37 115.08,162.46 112.73,163.41 111.53,163.53 108.51,163.84 104.7,163.19 104.09,160.41 103.44,157.4 105.82,156.12 106.73,154.41 104.45,153.1 100.98,152.96 101.69,148.65 104.16,147.19 106.88,142 110.57,144.81 109.73,144.46 108.34,143.64 107.21,144.33 107.31,146.46 104.74,146.88 104.81,148.41 104.92,150.54 109.92,150.88 110.57,154.17 110.93,155.99 110.23,156.79 109.85,159.45 112.32,160.57 112.84,158.09 113.69,157.05 114.86,155.64 117,153.32 118.73,152.49 121.27,151.29 125.19,151.15 128.81,150.57 130.74,150.26 132.67,149.12 134.57,148.89 135.59,148.78 136.53,149.03 137.45,148.89 141.32,148.33 144.92,146.83 148.73,146.49 150.32,146.35 151.97,146.67 153.53,146.49 154.74,146.36 155.89,145.68 157.13,145.53 160.54,145.13 162.82,145.05 165.53,144.09 167.44,141.34 171.13,140.84 175.37,140.73 180.35,140.6 182.89,136.8 190.25,137.61 191.71,137.78 193.74,138.14 195.53,138.57 196.24,138.74 196.95,139.37 197.69,139.53 200.33,140.1 203.1,139.63 204.65,140.01 205.38,140.19 206.23,141.02 207.29,141.45 208.46,141.93 209.87,142.03 210.41,142.41 211.87,143.43 212.08,145.73 213.77,146.25 215.79,143.95 217.05,140.9 220.97,140.49 L 220.97,139.77 Z M 220.97,139.77" />
        <path id="flago3-bezier1291" fill-rule="evenodd" stroke="none" fill="rgb(192, 192, 192)" d="M 219.53,129.45 C 220.44,129.91 220.91,130.8 220.73,132.33 220.39,131.31 220.37,129.97 219.53,129.45 Z M 219.53,129.45" />
        <path id="flago3-bezier1292" fill-rule="evenodd" stroke="none" fill="rgb(192, 192, 192)" d="M 207.53,131.61 C 208.25,130.73 209.23,130.11 210.17,129.45 209.46,130.34 208.47,130.95 207.53,131.61 Z M 207.53,131.61" />
        <path id="flago3-bezier1293" fill-rule="evenodd" stroke="none" fill="rgb(255, 255, 255)" d="M 202.97,131.85 C 204.79,132.18 206.15,132.52 207.53,131.61 208.47,130.95 209.46,130.34 210.17,129.45 212.78,128.22 217.28,127.21 219.53,129.45 220.37,129.97 220.39,131.31 220.73,132.33 220.85,135.17 219.3,136.34 218.57,138.33 219.06,139.12 220.22,139.25 220.97,139.77 L 220.97,140.49 C 217.05,140.9 215.79,143.95 213.77,146.25 212.08,145.73 211.87,143.43 210.41,142.41 209.87,142.03 208.46,141.93 207.29,141.45 206.23,141.02 205.38,140.19 204.65,140.01 203.1,139.63 200.33,140.1 197.69,139.53 196.95,139.37 196.24,138.74 195.53,138.57 193.74,138.14 191.71,137.78 190.25,137.61 182.89,136.8 180.35,140.6 175.37,140.73 171.13,140.84 167.44,141.34 165.53,144.09 162.82,145.05 160.54,145.13 157.13,145.53 155.89,145.68 154.74,146.36 153.53,146.49 151.97,146.67 150.32,146.35 148.73,146.49 144.92,146.83 141.32,148.33 137.45,148.89 136.53,149.03 135.59,148.78 134.57,148.89 132.67,149.12 130.74,150.26 128.81,150.57 125.19,151.15 121.27,151.29 118.73,152.49 117,153.32 114.86,155.64 113.69,157.05 112.84,158.09 112.32,160.57 109.85,159.45 110.23,156.79 110.93,155.99 110.57,154.17 109.92,150.88 104.92,150.54 104.81,148.41 104.74,146.87 107.31,146.46 107.21,144.33 108.34,143.64 109.73,144.46 110.57,144.81 111.88,145.18 113.17,145.58 114.65,145.77 114.98,146.32 116.32,145.86 117.05,146.01 117.36,145.69 118.19,145.69 118.49,146.01 119.64,146.71 122.79,146.67 124.25,146.25 126.29,145.34 128.36,144.44 130.97,144.09 132.61,145.38 134.91,144.76 135.05,142.89 135.18,141.29 133.1,139.75 131.93,139.05 127.31,136.28 119.78,133.35 117.05,130.17 115.4,127.56 112.56,124.87 108.65,124.41 104.98,123.99 100.84,125.4 98.57,122.49 98.34,121.8 97.77,120.59 98.33,119.85 98.63,118.87 98.97,117.93 99.53,117.21 100.22,116.14 100.62,114.78 101.45,113.85 101.34,113.1 101.79,112.92 101.93,112.41 103.39,110.03 105.69,108.5 109.37,108.33 L 109.61,108.33 C 112.85,107.82 113.64,109.74 114.89,111.21 L 114.89,111.45 C 115.78,112.64 116.2,114.31 117.05,115.53 117.24,116.07 117.56,116.47 117.53,117.21 L 117.53,120.57 117.53,120.81 C 117.16,121.16 117.03,121.75 117.05,122.49 119.36,123.38 121.06,124.88 123.05,126.09 L 123.29,126.09 C 127.88,129.83 131.96,134.07 137.93,136.41 140.16,136.66 142.06,137.24 144.17,137.61 145.67,137.11 148.26,137.7 149.69,137.13 L 150.17,137.13 C 152.14,136.78 154.33,136.65 155.69,135.69 160.39,135.04 164.11,133.39 167.93,131.85 169.66,131.26 170.97,130.25 172.25,129.21 L 172.49,129.21 C 174.76,127.32 178.11,126.51 180.17,124.41 L 180.41,124.41 C 181.26,123.9 182.34,123.62 183.05,122.97 183.91,122.63 184.6,122.12 185.69,122.01 186.53,121.73 187.56,121.64 188.09,121.05 191.84,119.84 194.27,117.31 197.93,116.01 198.6,115.56 199.5,115.34 200.33,115.05 L 200.33,114.33 C 200.15,112.47 200.72,111.36 201.77,110.73 202.66,110.02 203.89,109.65 204.89,109.05 205.44,108.68 207.22,108.68 207.77,109.05 208.5,109.37 209.5,110.56 210.17,109.53 211.45,108.37 213.96,107.3 215.69,108.57 217.58,110.04 219.91,111.08 220.97,113.37 220.11,112.54 217.43,112.65 216.41,114.09 216.41,115.32 216.76,115.67 216.41,116.73 211.59,114.02 208.2,117.94 205.13,118.89 203.87,119.29 202.82,119.03 201.77,119.37 199.45,120.14 197.57,121.46 196.01,122.73 195.12,123.47 194.42,124.8 193.13,125.61 190.67,127.17 187.36,126.87 185.21,128.97 181.76,128.96 179.77,130.42 178.25,132.33 177.98,133.68 178.49,134.6 177.29,135.21 180.47,134.43 185.67,134.56 188.57,132.81 188.63,133.38 191.4,133.56 192.41,133.05 192.63,132.87 192.95,132.79 193.37,132.81 194.49,132.57 195.65,132.37 196.49,131.85 L 196.73,131.85 202.97,131.85 Z M 202.97,131.85" />
        <path id="flago3-bezier1294" fill-rule="evenodd" stroke="none" fill="rgb(192, 192, 192)" d="M 193.37,132.81 C 194.19,132.27 195.32,132.04 196.49,131.85 195.65,132.37 194.49,132.57 193.37,132.81 Z M 193.37,132.81" />
        <path id="flago3-bezier1295" fill-rule="evenodd" stroke="none" fill="rgb(192, 192, 192)" d="M 215.69,108.57 C 218.94,110.2 221.96,112.07 221.45,117.45 219.42,118.64 217.06,121.16 214.73,121.53 212.56,121.88 210.3,120.68 208.25,121.05 206.45,121.38 204.22,122.72 202.73,123.69 198.2,126.65 193.48,129.64 189.29,132.81 189.86,133.36 191.45,132.9 192.41,133.05 191.4,133.56 188.63,133.38 188.57,132.81 185.67,134.56 180.47,134.43 177.29,135.21 178.49,134.59 177.98,133.68 178.25,132.33 179.77,130.42 181.76,128.96 185.21,128.97 187.36,126.86 190.67,127.17 193.13,125.61 194.42,124.8 195.12,123.47 196.01,122.73 197.57,121.46 199.45,120.14 201.77,119.37 202.82,119.03 203.87,119.29 205.13,118.89 208.2,117.93 211.59,114.02 216.41,116.73 216.76,115.67 216.41,115.32 216.41,114.09 217.43,112.65 220.11,112.54 220.97,113.37 219.91,111.08 217.58,110.04 215.69,108.57 Z M 215.69,108.57" />
        <path id="flago3-bezier1296" fill-rule="evenodd" stroke="none" fill="rgb(255, 255, 255)" d="M 259.13,108.33 C 259.31,109.07 258.89,109.21 258.89,109.77 258.21,109.81 259.1,111.42 258.41,111.45 256.92,110.76 258.02,108.14 258.89,107.61 259.17,107.65 259.1,108.05 259.13,108.33 Z M 259.13,108.33" />
        <path id="flago3-bezier1297" fill-rule="evenodd" stroke="none" fill="rgb(255, 255, 255)" d="M 258.65,112.17 C 258.52,114.52 257.93,116.41 257.45,118.41 256.14,119.55 255.26,116.57 255.53,114.57 256.5,113.7 256.95,112.31 258.65,112.17 Z M 258.65,112.17" />
        <path id="flago3-bezier1298" fill-rule="evenodd" stroke="none" fill="rgb(0, 0, 0)" d="M 132.41,174.81 C 133.51,176.98 136.66,175.4 138.41,174.81 136.7,174.74 133.37,172.61 132.41,174.81 Z M 118.25,170.97 C 115.49,170.85 112.94,170.58 109.85,170.97 108.13,171.19 105.88,172.38 103.61,173.13 101.05,173.99 98.53,174.42 97.37,175.29 96.68,175.82 96.17,176.83 95.45,177.45 93.67,178.99 90.73,180.34 88.49,182.25 86.03,184.36 83.43,186.46 81.05,186.81 78.76,187.16 76.53,186.13 75.29,188.01 77.81,188.06 80,189.14 82.01,189.21 85.88,189.35 88.17,187.28 91.37,184.89 93.57,183.25 96.36,182.05 98.09,180.57 98.93,179.86 99.41,178.8 100.25,178.17 101.77,177.04 103.71,175.69 105.05,175.05 107.72,173.79 111.35,172.41 114.89,172.65 116.17,172.74 117.24,173.76 118.49,173.85 119.25,173.91 119.93,173.38 120.65,173.37 121.98,173.36 123.34,174.54 124.97,173.61 124.85,169.63 120.93,171.09 118.25,170.97 Z M 65.45,170.49 C 65.78,166.5 58.89,168.83 62.09,172.65 63.93,172.38 65.33,172.02 65.45,170.49 Z M 245.69,164.97 L 246.89,164.97 246.89,163.77 245.69,163.77 245.69,164.97 Z M 187.61,161.13 C 185.57,161.66 183.6,161.64 181.85,162.57 178.83,164.19 176.74,166.83 173.45,167.85 172.5,168.15 171.47,168.02 170.57,168.33 169.52,168.7 168.64,169.7 167.45,170.01 166.69,170.21 165.8,169.99 165.05,170.25 163.58,170.77 162.48,172.16 160.97,172.65 159.87,173.01 158.44,172.9 157.13,173.37 155.07,174.12 151.41,175.56 149.21,175.77 146.23,176.06 143.12,174.17 139.61,175.53 141.14,177.5 144.81,176.68 147.29,177.21 148.25,177.42 148.85,178.1 149.69,178.17 150.9,178.28 152.73,178.02 154.01,177.93 156.81,177.74 160.8,176.79 163.37,175.77 164.45,175.34 165.23,174.43 166.25,174.09 169.35,173.09 172.4,172.54 175.37,171.45 178.63,170.26 181.35,167.23 184.49,165.69 185.84,165.03 187.37,165.05 188.57,164.49 190.05,163.81 191.06,162.21 192.65,161.37 193.83,160.76 195.49,161.08 195.77,159.45 192.49,158.39 190.12,160.49 187.61,161.13 Z M 203.21,159.69 C 205.46,159.79 207.49,159.65 208.97,158.97 207.28,158.76 203.74,157.59 203.21,159.69 Z M 250.01,159.69 C 250.28,158.3 246.48,156.12 246.89,159.69 247.79,160.73 249.74,161.12 250.01,159.69 Z M 250.73,155.61 C 250.7,154.37 249.6,154.19 249.29,153.21 245.44,152.88 248.36,157.34 250.73,155.61 Z M 248.33,151.77 C 248.99,152.38 250.09,152.34 250.49,151.53 250.59,149.87 247.81,149.49 248.33,151.77 Z M 250.25,145.53 C 251.23,144.43 253.12,142.5 251.69,140.49 248.79,140.5 248.16,144.36 250.25,145.53 Z M 51.05,138.33 C 51.78,140 55.03,139.12 54.89,137.13 54.08,135.51 50.92,136.28 51.05,138.33 Z M 251.21,140.25 C 252.89,139.7 253.86,136.95 252.89,135.21 250.07,135.28 249.39,138.69 251.21,140.25 Z M 65.93,124.65 C 66.41,126.24 66.03,127.65 66.65,128.73 70.78,129.15 68.1,121.21 65.93,124.65 Z M 215.69,108.57 C 213.96,107.3 211.45,108.37 210.17,109.53 209.09,110.19 209,108.92 207.77,109.05 207.22,108.68 205.44,108.68 204.89,109.05 203.57,109.33 202.46,109.82 201.77,110.73 200.72,111.36 200.15,112.47 200.33,114.33 200.05,114.37 200.07,114.71 200.09,115.05 199.03,115.03 198.36,115.4 197.93,116.01 194.27,117.31 191.84,119.84 188.09,121.05 187.26,121.34 186.23,121.43 185.69,122.01 184.6,122.12 183.91,122.63 183.05,122.97 182.05,123.33 181.01,123.65 180.41,124.41 L 180.17,124.41 C 177.85,126.25 174.52,127.08 172.49,129.21 L 172.25,129.21 C 170.74,130.02 169.39,130.99 167.93,131.85 164.11,133.39 160.39,135.04 155.69,135.69 154.04,136.36 151.78,136.42 150.17,137.13 L 149.69,137.13 C 147.81,137.25 145.35,136.79 144.17,137.61 142.06,137.24 140.16,136.66 137.93,136.41 132.24,133.78 128.09,129.62 123.29,126.09 L 123.05,126.09 C 121.5,124.37 119.04,123.55 117.29,122.01 117.19,121.44 117.73,121.49 117.53,120.81 L 117.53,120.57 C 117.93,120 117.93,117.79 117.53,117.21 117.56,116.47 117.24,116.07 117.05,115.53 116.51,113.99 116.01,112.42 114.89,111.45 L 114.89,111.21 C 114.08,109.46 112.41,107.3 109.61,108.33 L 109.37,108.33 C 105.31,108.11 103.23,109.87 101.93,112.41 101.79,112.92 101.34,113.1 101.45,113.85 100.49,114.65 99.81,115.73 99.53,117.21 98.97,117.93 98.63,118.87 98.33,119.85 L 98.09,119.85 C 93.93,126.5 98.97,133.6 107.21,131.85 L 107.93,131.85 C 110.32,132 111.28,130.72 112.97,130.17 120,134.11 125.01,140.05 132.41,143.61 131.99,143.83 131.22,143.7 130.97,144.09 128.36,144.44 126.3,145.34 124.25,146.25 122.26,146.24 120.15,146.36 118.49,146.01 118.19,145.69 117.36,145.69 117.05,146.01 116.72,145.47 115.38,145.92 114.65,145.77 113.17,145.58 111.88,145.18 110.57,144.81 106.89,142 104.16,147.19 101.69,148.65 100.98,152.96 104.45,153.1 106.73,154.41 105.82,156.12 103.44,157.4 104.09,160.41 104.7,163.19 108.51,163.84 111.53,163.53 112.73,163.41 115.08,162.46 116.33,161.37 118.43,159.55 119.35,155.76 121.61,155.13 122.46,154.9 123.57,155.23 124.49,155.13 130.76,154.45 139.84,151.07 146.81,152.01 148.34,152.22 149.77,153.1 151.37,152.97 152.48,152.88 153.51,152.18 154.49,152.01 156.29,151.7 157.82,151.89 159.05,151.53 161.76,150.75 164.33,149.78 166.73,148.89 169.17,147.99 170.95,146.38 173.45,145.29 179.68,142.61 186.31,142.54 192.89,140.49 195.04,141.23 198.24,140.91 200.09,141.93 201,144.38 203.72,145.03 206.81,145.29 209.83,147.18 211.82,151.09 215.69,151.53 221.72,152.23 225.23,143.92 220.97,139.77 220.22,139.25 219.06,139.12 218.57,138.33 219.3,136.34 220.85,135.17 220.73,132.33 220.91,130.8 220.44,129.91 219.53,129.45 217.28,127.21 212.78,128.22 210.17,129.45 209.23,130.12 208.25,130.73 207.53,131.61 206.15,132.52 204.79,132.18 202.97,131.85 201.45,131.45 198.26,131.45 196.73,131.85 L 196.49,131.85 C 195.32,132.04 194.19,132.27 193.37,132.81 192.95,132.79 192.63,132.87 192.41,133.05 191.45,132.9 189.86,133.37 189.29,132.81 193.48,129.64 198.2,126.65 202.73,123.69 204.22,122.72 206.45,121.38 208.25,121.05 210.3,120.69 212.56,121.88 214.73,121.53 217.06,121.16 219.42,118.64 221.45,117.45 221.96,112.07 218.94,110.21 215.69,108.57 Z M 66.17,107.13 C 67.01,107.95 68.71,107.66 68.81,106.41 68.53,105.11 65.63,104.99 66.17,107.13 Z M 63.77,91.29 C 62.56,91.45 58.76,94.08 57.53,95.37 54.89,98.17 56.69,101.87 60.41,101.61 63.97,101.37 68.91,95.79 66.65,92.01 65.85,91.58 65.14,91.12 63.77,91.29 Z M 77.93,90.09 C 78.27,90.15 78.34,90.49 78.65,90.57 78.71,90.23 79.05,90.17 79.13,89.85 78.79,89.8 78.73,89.46 78.41,89.37 78.35,89.72 78.02,89.78 77.93,90.09 Z M 140.09,60.81 C 138.46,60.13 137.22,59.05 135.53,58.41 131.73,63.01 131.49,71.17 130.01,78.09 128.25,80.9 125.19,83.89 124.97,87.45 124.67,92.47 129.99,95.42 131.45,99.45 128.29,106.17 137.25,108.51 142.25,107.85 142.9,111.32 141.25,116.12 142.25,120.57 144.14,122.03 145.49,125.07 149.21,123.93 150.62,122.99 150.89,118.73 149.93,116.97 149.94,116.64 149.82,116.45 149.69,116.25 149.54,115.45 150,114.02 149.45,113.61 L 149.45,113.13 C 149.95,112.9 151.48,113.35 152.09,112.65 L 152.33,112.65 C 152.89,113.3 152.42,114.97 152.57,116.01 152.43,116.59 152.23,117.11 152.33,117.93 152.03,121.35 153.64,122.87 154.01,125.61 159.52,128.25 159.93,120.18 161.45,116.49 162.52,120.22 164.16,123.38 165.29,127.05 165.96,127.12 167.01,128.04 167.69,127.29 L 167.93,127.29 C 171.53,126.57 172,121.44 171.29,117.21 171.26,115.81 170.73,114.89 170.81,113.37 L 171.05,113.37 C 171.86,113.53 173.28,113.06 173.69,113.61 173.64,115.08 172.94,115.9 172.97,117.45 173.03,118.83 172.79,120.51 173.21,121.53 176.99,124.2 180.87,120.14 180.89,116.01 180.83,115.2 181.08,114.07 180.65,113.61 181.23,111.79 181.77,109.93 182.33,108.09 183.97,108.78 185,110.06 186.41,110.97 187.82,110.86 189.06,111.13 190.25,110.97 193.86,110.48 196.44,106.96 197.45,104.01 198.46,101.07 197.6,96.19 199.37,94.17 197.09,93.25 195.55,91.59 193.61,90.33 L 193.37,90.33 193.37,90.09 C 192.63,90.12 192.69,89.34 191.69,89.61 191.2,92.96 188.64,94.24 186.65,96.09 L 186.41,96.09 C 178.42,99.9 169.39,93.63 169.85,86.73 169.81,85.33 168.76,84.95 168.41,83.85 L 168.41,79.29 C 168.53,78.21 168.29,77.5 168.17,76.65 168.7,76.62 168.27,75.63 168.41,75.21 167.92,74.98 167.46,74.72 166.97,74.49 164,72.82 161.01,71.18 157.13,70.41 156.61,69.5 155.72,68.94 154.49,68.73 L 154.25,68.73 C 153.31,68.08 152.58,67.2 151.13,67.05 150.83,67.04 150.8,66.75 150.41,66.81 149.61,65.93 148.38,65.49 147.29,64.89 144.57,63.86 142.26,62.4 140.09,60.81 Z M 197.21,84.81 C 198.69,86.21 200.08,87.7 202.25,88.41 203.02,85.19 202.77,82.7 203.45,79.29 204.06,76.27 206.13,74.15 205.61,70.17 204.74,63.53 201.38,58.73 197.45,55.29 196.25,54.25 195.14,52.74 194.09,51.93 193.5,51.48 192.47,51.45 191.69,50.97 190.61,50.32 189.83,49.21 189.05,48.81 187.02,47.79 184.6,47.49 182.81,46.41 178.52,43.84 175.87,40.01 170.57,40.41 169.44,40.5 168.58,41.03 167.69,41.13 164.26,41.54 161.05,40.77 158.09,41.37 148.89,43.25 143.7,48.06 138.17,54.81 139.84,55.87 141.75,56.68 143.45,57.69 L 143.69,57.69 C 144.24,58.51 144.8,59.31 145.85,59.61 151.08,61.67 155.71,64.32 160.49,66.81 161.15,67.2 162.08,67.31 163.13,67.29 165.63,68.24 167.1,70.21 169.85,70.89 172.14,71.89 173.17,74.14 175.85,74.73 177.19,75 178.09,75.69 179.45,75.93 180.36,76.46 181.41,76.86 182.33,77.37 183.56,77.83 184.41,78.66 185.69,79.05 186.23,79.87 187.36,80.11 188.09,80.73 189.29,81.22 190.34,81.85 191.69,82.17 192.34,83.12 193.83,83.24 194.81,83.85 195.57,84.22 196.25,84.65 197.21,84.81 Z M 268.01,38.01 C 268.34,40.72 267.95,41.94 266.81,43.53 265.68,44.62 266,47.26 265.61,49.77 264.95,54.08 262.17,59.25 261.77,62.97 261.65,64.16 261.89,65.13 261.77,66.09 260.84,73.61 258.14,81.24 257.21,88.41 256.84,91.31 256.73,94.32 256.25,97.05 255.93,98.87 255.01,100.44 254.81,102.09 254.65,103.4 254.96,104.51 254.81,105.69 253.93,112.64 251.16,120.74 250.97,127.05 250.92,128.7 251.18,130.02 252.17,131.61 257.31,130.6 256.27,123.4 257.45,118.41 257.93,116.41 258.52,114.52 258.65,112.17 259.08,111.72 258.83,110.59 258.89,109.77 258.89,109.21 259.31,109.07 259.13,108.33 259.86,107.06 259.92,105.12 259.85,103.05 L 259.85,102.81 C 260.49,100.65 261.18,98.54 261.29,95.85 261.99,95.11 261.65,93.33 262.01,92.25 262.57,91.61 262.1,89.94 262.25,88.89 262.8,87.44 263.27,85.91 263.21,83.85 263.83,83.35 263.68,82.08 263.69,80.97 263.8,80.12 264.23,79.59 264.17,78.57 264.96,78.16 264.55,76.55 264.65,75.45 266.78,66.85 267.06,56.81 268.25,47.61 269.01,47.25 268.65,45.77 268.73,44.73 268.59,40.68 271.82,38.12 271.61,34.17 L 271.61,33.93 C 271.1,33.41 270.45,33.02 269.21,33.21 268.76,34.6 267.59,36.54 268.01,38.01 Z M 141.53,33.45 C 142.27,33.15 143.42,33.26 143.45,32.25 142.71,32.55 141.57,32.45 141.53,33.45 Z M 267.53,30.09 C 267.66,31.11 269.83,31.1 269.69,29.85 269.56,28.84 267.39,28.85 267.53,30.09 Z M 206.81,28.89 C 206.76,29.35 207.08,29.42 207.05,29.85 208.88,30.43 210.68,29.25 211.13,27.69 210.01,27.51 206.96,27.32 206.81,28.89 Z M 215.69,27.21 C 216.64,28 219.08,27.63 219.53,26.49 218.33,27.23 216.29,25.76 215.69,27.21 Z M 271.61,24.09 C 272,22.69 270.78,22.28 270.17,22.41 267.1,23.09 270.88,26.74 271.61,24.09 Z M 183.53,24.09 C 180.63,23.54 177.75,22.81 174.89,22.17 167.07,20.43 159.06,23.22 151.37,24.57 150.63,25.43 150.35,26.75 149.69,27.69 147.66,27.13 145.12,29.11 145.37,30.81 147.57,30.53 148.57,29.05 149.93,27.93 152.85,26.85 156.63,27.79 160.01,27.21 163.48,26.62 166.78,25.21 170.09,25.05 177.43,24.7 183.46,28.8 190.73,29.37 193.3,32.6 200.53,31.65 203.45,29.37 197.39,27.55 190.5,25.44 183.53,24.09 Z M 224.57,25.77 C 229.74,26.27 234.62,22.41 238.73,20.25 233.62,21.7 228.84,23.48 224.57,25.77 Z M 268.01,21.21 C 269.46,21.06 271.73,21.73 271.85,20.25 271.83,17.51 265.54,18.29 268.01,21.21 Z M 274.97,5.61 C 275.55,6.39 276.49,6.82 277.37,7.29 277.19,6.39 277.67,6.15 277.61,5.37 276.73,5.45 275.49,5.17 274.97,5.61 Z M 217.37,23.13 C 220.18,22.7 223.46,21.39 226.25,20.01 229.06,18.63 232.05,17.51 234.17,16.17 236.62,14.63 237.54,11.9 239.69,10.41 244.58,7.05 253.32,7.74 261.53,8.49 262.51,8.58 263.55,9.08 264.65,8.97 267.26,8.72 267.73,6.4 270.89,6.33 270.72,4.48 271.13,3.21 271.85,2.25 274.38,2.06 275.39,0.33 277.61,0.33 278.45,0.33 279.36,1.11 280.73,1.53 282.42,2.05 283.5,1.76 284.33,2.49 285.5,3.52 285.92,6.06 285.77,8.01 285.66,9.42 284.8,10.62 284.81,11.85 284.83,13.28 285.76,14.68 285.77,16.17 285.86,23.48 281.86,33.3 280.97,41.13 280.77,42.88 280.81,44.43 280.49,45.93 280.19,47.36 279.56,48.57 279.29,50.01 278.73,53.08 279.15,56.44 278.81,59.61 278.49,62.57 276.93,65.35 276.65,68.01 276.49,69.6 276.95,71.17 276.89,72.81 276.7,78.12 274.96,82.66 274.49,88.89 273.88,97.12 271.18,105.4 270.41,113.61 268.76,131.28 265.96,149.06 262.73,164.49 265.11,167.3 263.36,172.23 262.73,175.53 262.09,178.91 262.29,182.01 261.29,184.89 260.42,187.41 258.66,189.63 257.93,192.09 257.17,194.67 256.87,198.49 256.49,201.69 256.04,205.48 256.08,208.62 255.77,212.97 255.47,217.17 254.29,221.53 253.61,225.69 252.43,232.95 252.47,239.98 250.97,246.81 248.78,256.78 245.51,266.62 244.01,276.33 243.7,278.34 243.9,280.79 243.05,282.33 L 242.81,282.33 C 242.89,283.54 242.25,284.01 242.33,285.21 242.52,286.12 242.04,286.36 242.09,287.13 L 241.85,287.13 C 240.28,294.04 238.81,301.05 237.77,308.49 237.58,310.94 237.02,313.02 236.33,314.97 234.72,317.91 226.71,315.63 227.21,311.85 227.42,310.28 229.09,308.67 232.01,308.25 232.21,305.11 233.91,302.23 234.41,299.13 235.49,292.45 237.59,285.92 238.73,278.97 240.28,269.51 240.68,259.63 241.85,249.45 242.13,249.17 242.12,248.61 242.09,248.01 242.48,247.2 242.58,246.11 242.57,244.89 L 242.57,244.65 C 243.12,244.32 242.66,242.98 242.81,242.25 L 242.81,242.01 C 243.54,239.46 243.19,235.83 243.77,233.13 244.2,232.68 243.95,231.55 244.01,230.73 L 244.25,230.73 C 244.21,228.21 244.76,226.29 244.97,224.01 L 244.97,223.77 C 245.48,222.76 245.38,221.14 245.69,219.93 L 245.69,219.69 C 246.11,218.51 246.19,216.99 246.41,215.61 247.04,214.01 246.88,211.6 246.89,209.37 L 247.13,209.37 C 246.95,207.67 247.43,206.63 247.37,205.05 247.82,204.54 247.53,203.29 247.61,202.41 247.99,201.19 248.08,199.69 248.09,198.09 248.41,196.73 248.78,195.42 248.81,193.77 249.18,190.54 250.18,186.66 249.77,183.45 249.45,187.29 248.74,190.74 248.09,194.25 247.46,196.35 247.07,198.67 246.65,200.97 246.23,201.67 246.11,202.67 245.93,203.61 L 245.93,203.85 C 245.46,204.66 245.35,205.83 245.21,206.97 243.82,211.83 243.33,217.57 241.85,222.33 240.58,225.63 240.4,230 240.41,234.57 240.27,235.15 240.07,235.67 240.17,236.49 239.62,237.22 240.09,238.97 239.93,240.09 239.61,242.97 238.71,245.27 238.49,248.25 235.57,259.79 235.99,273.24 231.05,282.57 230.3,283.27 230.06,285.73 228.89,285.21 227,284.21 228.91,281.56 228.17,278.97 226.94,279.26 227.71,281.55 225.77,281.13 227.96,270.36 229.84,259.28 232.01,248.49 234.17,245.05 234.68,241.11 235.37,236.73 235.68,234.77 236.05,232.38 236.57,230.49 236.83,229.57 237.63,228.81 237.77,227.85 237.98,226.44 237.42,224.99 237.53,223.53 237.67,221.81 238.71,220.17 238.97,218.49 239.56,214.79 239.2,210.8 239.45,206.97 240.17,196.3 244.05,185.71 244.01,175.29 241.48,175.19 239.14,176.36 236.57,176.01 233.54,175.6 231.92,173.51 229.37,171.93 224.49,168.91 217.93,168.23 213.05,165.45 208.73,165.62 203.99,165.21 200.57,165.69 198.33,166.01 196.27,167.26 194.33,167.61 193.45,167.77 192.59,167.51 191.69,167.61 185.56,168.32 180.75,172.49 176.09,175.29 174.38,176.32 172.22,176.94 170.33,177.93 168.44,178.93 166.68,180.41 165.05,181.05 159.75,183.17 153.41,184.75 147.53,185.37 143.38,185.81 139.85,184.72 136.73,183.69 134.83,183.06 133.07,181.63 130.73,181.05 127.16,180.17 122.42,180.29 118.25,179.61 113.39,178.83 106.38,178.81 102.41,181.05 98.56,183.23 95.56,188.52 91.85,191.37 87.14,195.01 78.59,195.84 70.73,194.97 65.6,194.41 60.62,191.88 55.61,191.37 53.48,191.16 51.81,192.02 49.61,191.61 48.55,191.6 48.81,189.79 49.37,189.45 47.29,188.17 45.7,186.4 44.33,184.41 43.01,185.46 41.32,185.39 39.77,186.09 38.35,186.73 37.54,188.07 36.17,188.25 30.2,189.07 28.16,183.02 25.13,179.61 22.13,179.94 19.08,177.14 15.53,178.41 13.9,179 13.34,180.82 12.41,181.53 10.32,183.14 6.1,184.56 5.93,181.53 5.83,179.57 7.95,179.83 9.05,178.65 10.26,177.36 9.68,176.35 10.73,175.05 12.58,173.43 15.4,173.54 18.41,173.13 23.27,172.48 28.93,170.48 33.53,173.61 34.43,173.92 34.42,175.12 35.21,175.53 41.08,174.05 43.63,180.38 47.93,179.85 50.37,179.55 50.73,177.43 52.25,175.77 58.75,174.24 56.28,164.15 51.29,163.05 47.46,162.21 44.25,165.98 41.69,165.93 39.82,165.9 38.91,164.05 36.89,162.57 34.24,160.63 31.6,160.05 27.77,160.17 22.17,160.35 16.25,158.83 15.05,165.21 12.65,166.59 7.23,168.75 5.45,164.97 4.83,163.66 5.45,161.52 5.21,159.21 4.95,156.63 4.04,154.38 5.45,152.01 7.62,148.37 11.63,147.74 16.49,147.93 16.87,147.06 14.97,146.42 14.33,145.77 11.7,146.02 10.37,145.43 8.33,145.77 5.16,146.31 2.82,150.19 1.13,149.61 -0.41,149.08 -0.26,145.68 0.89,144.09 2.15,142.37 3.73,142.97 5.21,141.69 7.47,139.76 8.26,135.48 11.45,134.49 12.93,134.04 16.24,134.16 17.69,134.49 18.69,134.72 19.59,135.83 20.81,136.17 23.42,136.9 26.71,136.08 29.69,136.41 30.96,136.55 32.15,137.34 33.29,137.13 34.46,136.92 35.28,135.25 36.89,134.49 37.48,134.22 38.33,134.27 39.05,134.01 41.5,133.13 42.79,131.06 46.49,132.33 47.5,132.3 47.09,130.85 48.17,130.89 53.74,130.89 63.28,127.81 64.25,123.93 65.66,118.32 59.43,114.68 56.33,119.37 52.97,119.67 50.88,122.32 47.45,121.77 46.59,122.61 47.26,120.55 46.73,120.33 43.21,120.98 42.61,124.53 39.05,125.13 35.5,130.9 25.67,127.06 22.01,123.93 18.92,121.32 21.89,114.13 24.89,112.89 29.26,111.09 30.9,115.75 33.53,115.29 35.62,114.93 35.55,109.9 37.37,108.81 40.84,106.75 44.68,109.21 48.17,108.57 48.87,107.99 48.6,106.44 49.13,105.69 46.34,106.87 44.2,107.22 40.01,106.89 37.31,105.04 34.9,102.89 32.57,100.65 30.17,101.77 26.74,100.85 25.37,99.45 24.15,100.43 22.15,100.46 20.33,101.61 18.55,102.74 17.95,104.41 16.01,104.49 14.49,104.56 13.12,103.72 12.17,102.33 11.16,96.86 17.69,92.69 21.29,92.01 25.58,91.21 28.39,92.82 30.17,94.89 31.35,93.91 34.03,94.43 35.69,93.93 36.59,88.7 40.16,84.71 44.57,83.13 46.26,82.53 48.05,83.25 50.33,82.65 52.62,82.05 53.9,78.87 54.65,76.89 50.14,74.34 44.1,77.62 40.25,76.89 38.72,78.32 36.94,80.78 34.49,80.49 33.3,80.55 33.35,78.4 33.77,77.61 34.72,77.23 33.86,78.65 34.49,78.57 36.71,77.03 38.77,75.33 40.01,72.81 45.08,69.72 53.94,70.74 60.41,72.33 62.3,72.8 63.75,74.24 65.45,74.49 66.39,74.63 67.39,73.99 68.33,74.01 71.32,74.09 73.59,75.7 75.77,74.49 77.75,73.4 78.31,69.25 75.05,68.97 75.77,68.01 76.93,67.49 77.69,66.57 76.59,67.21 75.34,66.81 74.09,67.53 72.69,68.35 72.13,70.27 69.05,69.93 68.31,69.85 67.54,68.97 66.41,68.73 64.36,68.31 62.7,68.94 61.85,67.29 60.59,66.96 60.1,68.24 59.21,67.53 59.38,66.4 62.06,62.74 63.77,62.25 67.12,61.3 70.6,63.74 73.85,63.45 75.29,63.33 75.88,62.22 77.45,62.49 78.56,58.21 81.68,51.87 85.37,50.49 88.92,49.17 98.28,48.09 103.61,49.05 104.57,49.23 105.73,50.49 106.97,50.73 108.08,50.95 110.17,50.67 111.53,50.25 117.37,48.49 123.07,42.22 127.37,38.25 128.92,36.82 130.52,35.68 131.93,34.41 133.34,33.15 134.21,31.19 135.77,30.09 136.39,29.66 137.25,29.59 137.93,29.13 139.06,28.38 139.86,27.08 140.81,26.49 142.37,25.54 144.24,24.76 145.85,23.85 150.42,21.29 156.3,18.57 162.89,18.09 167.81,17.74 172.59,18.61 178.49,19.29 186.13,20.18 192.36,24.03 200.57,25.05 204.23,25.51 207.63,24.04 212.09,24.33 214.44,24.52 215.93,23.86 217.37,23.13 Z M 217.37,23.13" />
    </g>
</svg>
