<?xml version="1.0" encoding="UTF-8"?>
<!DOCTYPE svg PUBLIC "-//W3C//DTD SVG 1.1//EN" "http://www.w3.org/Graphics/SVG/1.1/DTD/svg11.dtd">
<svg version="1.1" xmlns="http://www.w3.org/2000/svg" xmlns:xlink="http://www.w3.org/1999/xlink" width="26" height="26"  xml:space="preserve" id="redChipl">
    <!-- Generated by PaintCode - http://www.paintcodeapp.com -->

    <!-- This code was generated by Trial version of PaintCode, therefore cannot be used for commercial purposes. -->

    <g id="redChipl-group">
        <circle id="redChipl-oval18" stroke="none" fill="rgb(255, 79, 91)" cx="12.95" cy="13.05" r="12.95" />
        <circle id="redChipl-oval19" stroke="none" fill="rgb(255, 255, 255)" cx="12.95" cy="13.05" r="12.4" />
        <path id="redChipl-bezier26" fill-rule="evenodd" stroke="none" fill="rgb(255, 79, 91)" d="M 21.69,4.23 C 23.25,5.77 24.41,7.73 24.98,9.93 L 20.69,11.04 C 20.33,9.63 19.58,8.37 18.57,7.38 L 21.69,4.23 Z M 21.69,4.23" />
        <path id="redChipl-bezier27" fill-rule="evenodd" stroke="none" fill="rgb(255, 79, 91)" d="M 4.24,21.9 C 2.67,20.35 1.52,18.39 0.94,16.2 L 5.23,15.08 C 5.6,16.49 6.34,17.75 7.35,18.75 L 4.24,21.9 Z M 4.24,21.9" />
        <circle id="redChipl-oval20" stroke="none" fill="rgb(255, 79, 91)" cx="12.95" cy="13.05" r="9.15" />
        <circle id="redChipl-oval21" stroke="none" fill="rgb(255, 255, 255)" cx="12.95" cy="13.05" r="7.7" />
        <path id="redChipl-bezier28" fill-rule="evenodd" stroke="none" fill="rgb(255, 79, 91)" d="M 10.84,5.36 L 9.67,1.09 C 10.72,0.8 11.82,0.64 12.96,0.64 14.1,0.64 15.21,0.8 16.25,1.09 L 15.08,5.36 C 14.41,5.17 13.7,5.07 12.96,5.07 12.23,5.07 11.52,5.17 10.84,5.36 Z M 10.84,5.36" />
        <path id="redChipl-bezier29" fill-rule="evenodd" stroke="none" fill="rgb(255, 79, 91)" d="M 5.23,11.04 L 0.94,9.93 C 1.52,7.73 2.67,5.77 4.24,4.23 L 7.35,7.38 C 6.34,8.37 5.6,9.63 5.23,11.04 Z M 5.23,11.04" />
        <path id="redChipl-bezier30" fill-rule="evenodd" stroke="none" fill="rgb(255, 79, 91)" d="M 15.08,20.77 L 16.25,25.04 C 15.21,25.33 14.1,25.48 12.96,25.48 11.82,25.48 10.72,25.33 9.67,25.04 L 10.84,20.77 C 11.52,20.95 12.23,21.05 12.96,21.05 13.7,21.05 14.41,20.95 15.08,20.77 Z M 15.08,20.77" />
        <path id="redChipl-bezier31" fill-rule="evenodd" stroke="none" fill="rgb(255, 79, 91)" d="M 20.69,15.08 L 24.98,16.2 C 24.41,18.4 23.25,20.35 21.69,21.9 L 18.57,18.75 C 19.58,17.75 20.33,16.49 20.69,15.08 Z M 20.69,15.08" />
    </g>
</svg>
