<?xml version="1.0" encoding="utf-8"?>
<!-- Generator: Adobe Illustrator 22.1.0, SVG Export Plug-In . SVG Version: 6.00 Build 0)  -->
<svg version="1.1" id="logo" xmlns="http://www.w3.org/2000/svg" xmlns:xlink="http://www.w3.org/1999/xlink" x="0px" y="0px"
	 width="127px" height="30px" viewBox="0 0 127 30" style="enable-background:new 0 0 127 30;" xml:space="preserve">
<style type="text/css">
	.st0{fill:url(#ic_1_);}
	.st1{fill:#333333;}
</style>
<linearGradient id="ic_1_" gradientUnits="userSpaceOnUse" x1="102.1703" y1="-0.4192" x2="101.8879" y2="0.5679" gradientTransform="matrix(41 0 0 29.5 -4160 6)">
	<stop  offset="0" style="stop-color:#00DDFA"/>
	<stop  offset="1" style="stop-color:#0980DF"/>
</linearGradient>
<path id="ic" class="st0" d="M3.7,0.3h22.5C28.3,0.3,30,2,30,4l0,0c0,2.1-1.7,3.7-3.7,3.7H3.7C1.7,7.8,0,6.1,0,4.1l0,0
	C0,2,1.7,0.3,3.7,0.3z M3.7,11.3h7.5c2.1,0,3.7,1.7,3.7,3.7l0,0c0,2.1-1.7,3.7-3.7,3.7H3.7c-2.1,0-3.7-1.7-3.7-3.7l0,0
	C0,12.9,1.7,11.3,3.7,11.3z M3.8,29.8C1.7,29.8,0,28,0,26s1.7-3.7,3.8-3.7S7.6,24,7.6,26S5.8,29.8,3.8,29.8z M37.3,29.8H14.7
	C12.6,29.8,11,28,11,26l0,0c0-2.1,1.7-3.7,3.7-3.7h22.5c2.1,0,3.7,1.7,3.7,3.7l0,0C41,28,39.3,29.8,37.3,29.8z M37.3,18.8h-7.5
	c-2.1,0-3.7-1.7-3.7-3.7l0,0c0-2.1,1.7-3.7,3.7-3.7h7.5c2.1,0,3.7,1.7,3.7,3.7l0,0C41,17,39.3,18.8,37.3,18.8z M37.3,0.3
	c2,0,3.7,1.7,3.7,3.8s-1.7,3.8-3.8,3.8s-3.8-1.7-3.8-3.8S35.2,0.3,37.3,0.3z"/>
<path id="text" class="st1" d="M110.3,16.6l-0.3,1.5h15v3.3V24c0,1.7-1.2,3.1-2.6,3.1h-9.6c-0.7,0-1.3-0.7-1.3-1.5v-1.8h9.9v-2.3
	H106c-0.7,0-1.3-0.7-1.3-1.5c0-0.1,0-0.2,0-0.3l0.5-3H102v-3.3h25v3.3C127,16.7,110.3,16.7,110.3,16.6z M104,2.9h21.5v5.3
	c0,1.7-1.2,3.1-2.6,3.1H104V2.9z M107.5,6.1v2h13.6c0.4,0,0.8-0.4,0.8-0.9V6.1H107.5z M85.6,2.9h3.9v20.9c0,1.7-1.4,3.1-3.1,3.1
	h-3.9c-0.8,0-1.5-0.7-1.5-1.5v-2.1h3.6c0.5,0,0.9-0.4,0.9-0.9L85.6,2.9z M79.5,8.9h3.1l-3.1,12.5c-0.2,0.7-0.8,1.2-1.5,1.2h-3
	l3.1-12.5C78.2,9.4,78.8,8.9,79.5,8.9z M95.5,8.9c0.7,0,1.3,0.5,1.5,1.2l3,12.5h-3.1c-0.7,0-1.3-0.5-1.5-1.2l-3-12.5H95.5z
	 M54.6,15.8h-6.1c-0.8,0-1.5-0.7-1.5-1.5v-1.6h7.6V8.9H47v-3h7.6v-3h4.1v24h-4.1v-4.6H47v-3.1h7.6V15.8z M64.8,15.8h6.1
	c0.8,0,1.5-0.7,1.5-1.5v-1.6h-7.6V8.9h7.6v-3h-7.6v-3h-4.1v24h4.1v-4.6h7.6v-3.1h-7.6V15.8z"/>
</svg>
